<svg data-engine="system" data-diagram="tikz" version="1.1" xmlns="http://www.w3.org/2000/svg" xmlns:xlink="http://www.w3.org/1999/xlink" viewBox="-72.00005340576172 -72.0042495727539 192.19149780273438 285.6253967285156">
<g id="d4d4bd32b9fb374848abd-page1">
<path d="M-57.0625 120.1602L-71.8008 122.5117V-30.559L-57.0625-32.914Z" fill="#fe0017" class="v-sky"></path>
<path d="M-71.8008 122.5117L-52.9219 128.0977V-24.977L-71.8008-30.559Z" fill="#fe0017" class="v-sky"></path>
<path d="M-52.9219 128.0977L-43.1992 128.5508V-24.52L-52.9219-24.977Z" fill="#fe0017" class="v-sky"></path>
<path d="M-43.1992 128.5508L-45.0703 130.4492V-22.621L-43.1992-24.52Z" fill="#fe0017" class="v-sky"></path>
<path d="M-45.0703 130.4492L-47.082 133.9375V-19.137L-45.0703-22.621Z" fill="#fe0017" class="v-sky"></path>
<path d="M-47.082 133.9375L-51.1367 136.82813V-16.246L-47.082-19.137Z" fill="#fe0017" class="v-sky"></path>
<path d="M-51.1367 136.82813L-59.1328 144.87891V-8.195L-51.1367-16.246Z" fill="#fe0017" class="v-sky"></path>
<path d="M-59.1328 144.87891L-36.5664 150.91797V-2.156L-59.1328-8.195Z" fill="#fe0017" class="v-sky"></path>
<path d="M-36.5664 150.91797L-22.4492 150.23829V-2.836L-36.5664-2.156Z" fill="#fe0017" class="v-sky"></path>
<path d="M-22.4492 150.23829L-16.6953 151.19922V-1.871L-22.4492-2.836Z" fill="#fe0017" class="v-sky"></path>
<path d="M-16.6953 151.19922L-14.7109 153.46875V.395L-16.6953-1.871Z" fill="#fe0017" class="v-sky"></path>
<path d="M-14.7109 153.46875L-12.2461 154.96875V1.898L-14.7109 .395Z" fill="#fe0017" class="v-sky"></path>
<path d="M-12.2461 154.96875L-17.0625 155.0547V1.984L-12.2461 1.898Z" fill="#fe0017" class="v-sky"></path>
<path d="M-17.0625 155.0547L-28.2031 160.6094V7.539L-17.0625 1.984Z" fill="#fe0017" class="v-sky"></path>
<path d="M-28.2031 160.6094L-17.4336 168.0664V14.992L-28.2031 7.539Z" fill="#fe0017" class="v-sky"></path>
<path d="M-17.4336 168.0664L-14.2305 170.6445V17.574L-17.4336 14.992Z" fill="#fe0017" class="v-sky"></path>
<path d="M-14.2305 170.6445L-18.2812 174.1328V21.059L-14.2305 17.574Z" fill="#fe0017" class="v-sky"></path>
<path d="M-18.2812 174.1328L-20.8906 180.3984V27.324L-18.2812 21.059Z" fill="#fe0017" class="v-sky"></path>
<path d="M-20.8906 180.3984V186.3789V33.305V27.324Z" fill="#fe0017" class="v-sky"></path>
<path d="M-20.8906 186.3789L-13.3516 196.7266V43.652L-20.8906 33.305Z" fill="#fe0017" class="v-sky"></path>
<path d="M-13.3516 196.7266L3.1172 194.0898V41.016L-13.3516 43.652Z" fill="#fe0017" class="v-sky"></path>
<path d="M3.1172 194.0898L11.793 193.8047V40.734L3.1172 41.016Z" fill="#fe0017" class="v-sky"></path>
<path d="M11.793 193.8047L23.16016 190.207V37.133L11.793 40.734Z" fill="#fe0017" class="v-sky"></path>
<path d="M23.16016 190.207L27.55469 189.2695V36.199L23.16016 37.133Z" fill="#fe0017" class="v-sky"></path>
<path d="M27.55469 189.2695L42.918 190.9414V37.871L27.55469 36.199Z" fill="#fe0017" class="v-sky"></path>
<path d="M42.918 190.9414L47.4531 186.0117V32.938L42.918 37.871Z" fill="#fe0017" class="v-sky"></path>
<path d="M47.4531 186.0117L53.1523 185.4414V32.371L47.4531 32.938Z" fill="#fe0017" class="v-sky"></path>
<path d="M53.1523 185.4414L62.4219 178.9219V25.852L53.1523 32.371Z" fill="#fe0017" class="v-sky"></path>
<path d="M62.4219 178.9219L68.4023 169.9102V16.836L62.4219 25.852Z" fill="#fe0017" class="v-sky"></path>
<path d="M68.4023 169.9102L64.3203 163.7578V10.684L68.4023 16.836Z" fill="#fe0017" class="v-sky"></path>
<path d="M64.3203 163.7578L65.5391 156.2461V3.172L64.3203 10.684Z" fill="#fe0017" class="v-sky"></path>
<path d="M65.5391 156.2461L57.5156 150.15235V-2.922L65.5391 3.172Z" fill="#fe0017" class="v-sky"></path>
<path d="M57.5156 150.15235L51.9883 145.730473V-7.344L57.5156-2.922Z" fill="#fe0017" class="v-sky"></path>
<path d="M51.9883 145.730473L44.0781 139.29297V-13.777L51.9883-7.344Z" fill="#fe0017" class="v-sky"></path>
<path d="M44.0781 139.29297L35.2344 132.7734V-20.297L44.0781-13.777Z" fill="#fe0017" class="v-sky"></path>
<path d="M35.2344 132.7734L21.54297 128.6094V-24.465L35.2344-20.297Z" fill="#fe0017" class="v-sky"></path>
<path d="M21.54297 128.6094L23.16016 124.6094V-28.461L21.54297-24.465Z" fill="#fe0017" class="v-sky"></path>
<path d="M23.16016 124.6094L33.39453 122.1719V-30.898L23.16016-28.461Z" fill="#fe0017" class="v-sky"></path>
<path d="M33.39453 122.1719L44.3359 118.6875V-34.387L33.39453-30.898Z" fill="#fe0017" class="v-sky"></path>
<path d="M44.3359 118.6875L56.1836 113.7813V-39.289L44.3359-34.387Z" fill="#fe0017" class="v-sky"></path>
<path d="M56.1836 113.7813L70.7266 110.4648V-42.605L56.1836-39.289Z" fill="#fe0017" class="v-sky"></path>
<path d="M70.7266 110.4648L71.8867 98.3047V-54.766L70.7266-42.605Z" fill="#fe0017" class="v-sky"></path>
<path d="M71.8867 98.3047L80.1953 94.875V-58.199L71.8867-54.766Z" fill="#fe0017" class="v-sky"></path>
<path d="M80.1953 94.875L84.7852 90.1992V-62.875L80.1953-58.199Z" fill="#fe0017" class="v-sky"></path>
<path d="M84.7852 90.1992L76.9609 85.7188V-67.355L84.7852-62.875Z" fill="#fe0017" class="v-sky"></path>
<path d="M76.9609 85.7188L68.457 81.2695V-71.805L76.9609-67.355Z" fill="#fe0017" class="v-sky"></path>
<path d="M68.457 81.2695L63.5547 88.2695V-64.801L68.457-71.805Z" fill="#fe0017" class="v-sky"></path>
<path d="M63.5547 88.2695L51.2813 90.8203V-62.25L63.5547-64.801Z" fill="#fe0017" class="v-sky"></path>
<path d="M51.2813 90.8203L37.8711 94.0234V-59.047L51.2813-62.25Z" fill="#fe0017" class="v-sky"></path>
<path d="M37.8711 94.0234H26.25V-59.047H37.8711Z" fill="#fe0017" class="v-sky"></path>
<path d="M26.25 94.0234L28.94141 101.0273V-52.047L26.25-59.047Z" fill="#fe0017" class="v-sky"></path>
<path d="M28.94141 101.0273H15.53516V-52.047H28.94141Z" fill="#fe0017" class="v-sky"></path>
<path d="M15.53516 101.0273L1.0195 96.5742V-56.496L15.53516-52.047Z" fill="#fe0017" class="v-sky"></path>
<path d="M1.0195 96.5742L-12.3867 104.2305V-48.844L1.0195-56.496Z" fill="#fe0017" class="v-sky"></path>
<path d="M-12.3867 104.2305L-29.1406 109.957V-43.117L-12.3867-48.844Z" fill="#fe0017" class="v-sky"></path>
<path d="M-29.1406 109.957L-44.7891 113.7813V-39.289L-29.1406-43.117Z" fill="#fe0017" class="v-sky"></path>
<path d="M-44.7891 113.7813L-55.957 118.2617V-34.812L-44.7891-39.289Z" fill="#fe0017" class="v-sky"></path>
<path d="M-55.957 118.2617L-57.0625 120.1602V-32.914L-55.957-34.812Z" fill="#fe0017" class="v-sky"></path>
<path d="M-57.0625-32.914L-71.8008-30.559L-52.9219-24.977L-43.1992-24.52L-45.0703-22.621L-47.082-19.137L-51.1367-16.246L-59.1328-8.195L-36.5664-2.156L-22.4492-2.836L-16.6953-1.871L-14.7109 .395L-12.2461 1.898L-17.0625 1.984L-28.2031 7.539L-17.4336 14.992L-14.2305 17.574L-18.2812 21.059L-20.8906 27.324V33.305L-13.3516 43.652L3.1172 41.016L11.793 40.734L23.16016 37.133L27.55469 36.199L42.918 37.871L47.4531 32.938L53.1523 32.371L62.4219 25.852L68.4023 16.836L64.3203 10.684L65.5391 3.172L57.5156-2.922L51.9883-7.344L44.0781-13.777L35.2344-20.297L21.54297-24.465L23.16016-28.461L33.39453-30.898L44.3359-34.387L56.1836-39.289L70.7266-42.605L71.8867-54.766L80.1953-58.199L84.7852-62.875L76.9609-67.355L68.457-71.805L63.5547-64.801L51.2813-62.25L37.8711-59.047H26.25L28.94141-52.047H15.53516L1.0195-56.496L-12.3867-48.844L-29.1406-43.117L-44.7891-39.289L-55.957-34.812Z" fill="#fe0017" class="v-sky"></path>
<path d="M-31.6055 205.625V52.5547H9.4961V205.625Z" fill="#fe0017" class="v-sky"></path>
<path d="M9.4961 52.5547C9.4961 48.25 .2969 44.758-11.0547 44.758C-22.4062 44.758-31.6055 48.25-31.6055 52.5547S-22.4062 60.3477-11.0547 60.3477C.2969 60.3477 9.4961 56.8594 9.4961 52.5547Z" fill="#fe0017" class="v-sky"></path>
<path d="M78.3789 151.42579V-1.645H98.7891V151.42579Z" fill="#fe0017" class="v-sky"></path>
<path d="M98.7891-1.645C98.7891-4.184 94.2188-6.238 88.5859-6.238C82.9492-6.238 78.3789-4.184 78.3789-1.645C78.3789 .891 82.9492 2.945 88.5859 2.945C94.2188 2.945 98.7891 .891 98.7891-1.645Z" fill="#fe0017" class="v-sky"></path>
<path d="M101.8516 154.74219V1.672H119.9922V154.74219Z" fill="#fe0017" class="v-sky"></path>
<path d="M119.9922 1.672C119.9922-.582 115.9297-2.41 110.9219-2.41C105.9102-2.41 101.8516-.582 101.8516 1.672S105.9102 5.754 110.9219 5.754C115.9297 5.754 119.9922 3.926 119.9922 1.672Z" fill="#fe0017" class="v-sky"></path>
<path d="M-57.0625 120.1602L-71.8008 122.5117L-52.9219 128.0977L-43.1992 128.5508L-45.0703 130.4492L-47.082 133.9375L-51.1367 136.82813L-59.1328 144.87891L-36.5664 150.91797L-22.4492 150.23829L-16.6953 151.19922L-14.7109 153.46875L-12.2461 154.96875L-17.0625 155.0547L-28.2031 160.6094L-17.4336 168.0664L-14.2305 170.6445L-18.2812 174.1328L-20.8906 180.3984V186.3789L-13.3516 196.7266L3.1172 194.0898L11.793 193.8047L23.16016 190.207L27.55469 189.2695L42.918 190.9414L47.4531 186.0117L53.1523 185.4414L62.4219 178.9219L68.4023 169.9102L64.3203 163.7578L65.5391 156.2461L57.5156 150.15235L51.9883 145.730473L44.0781 139.29297L35.2344 132.7734L21.54297 128.6094L23.16016 124.6094L33.39453 122.1719L44.3359 118.6875L56.1836 113.7813L70.7266 110.4648L71.8867 98.3047L80.1953 94.875L84.7852 90.1992" stroke="#fe0013" fill="none" stroke-width=".3985" stroke-miterlimit="10" stroke-dasharray="2.98883 2.98883" class="v-line"></path>
<path d="M9.4961 205.625C9.4961 201.3203 .2969 197.832-11.0547 197.832C-22.4062 197.832-31.6055 201.3203-31.6055 205.625S-22.4062 213.4219-11.0547 213.4219C.2969 213.4219 9.4961 209.9297 9.4961 205.625ZM98.7891 151.42579C98.7891 148.89063 94.2188 146.83594 88.5859 146.83594C82.9492 146.83594 78.3789 148.89063 78.3789 151.42579C78.3789 153.96485 82.9492 156.0195 88.5859 156.0195C94.2188 156.0195 98.7891 153.96485 98.7891 151.42579ZM119.9922 154.74219C119.9922 152.48829 115.9297 150.66016 110.9219 150.66016C105.9102 150.66016 101.8516 152.48829 101.8516 154.74219C101.8516 156.9961 105.9102 158.8242 110.9219 158.8242C115.9297 158.8242 119.9922 156.9961 119.9922 154.74219Z" stroke="#fe0013" fill="none" stroke-width=".3985" stroke-miterlimit="10" stroke-dasharray="2.98883 2.98883" class="v-line"></path>
<path d="M-57.0625 120.1602L-60.8594 121.832L-50.3711 124.3828L-39.2031 124.8945L-32.4844 126.5391L-36.9648 131.6406L-39.2031 135.46875L-43.6523 138.67188L-48.5859 143.375L-34.7227 146.94922L-21.3164 146.32422L-10.1484 148.22266L-6.8008 152.07813L-2.3516 157.1523L-12.3867 158.457L-17.5195 160.9805L-10.1484 166.082L-4.5625 170.5625L-10.1484 175.4102L-12.3867 180.7656V185.8672L-8.5898 192.2461L1.0195 190.3203L8.8164 190.0625L18.87891 186.8906L26.70313 185.2148L37.8711 186.5195L41.2148 182.6953L47.9063 182.043L54.625 177.3086L59.5273 169.9102L55.7305 164.1836L56.8633 157.1523L50.1445 152.07813L44.5625 147.60157L36.7383 141.22266L28.94141 135.46875L12.1914 130.3633L15.53516 122.0898L28.94141 118.8867L38.9766 115.7109L51.2813 110.6094L62.4492 108.0547L63.5547 96.5742L75.8281 91.4727L84.7852 90.1992L76.9609 85.7188L68.457 81.2695L63.5547 88.2695L51.2813 90.8203L37.8711 94.0234H26.25L28.94141 101.0273H15.53516L1.0195 96.5742L-12.3867 104.2305L-29.1406 109.957L-44.7891 113.7813L-55.957 118.2617Z" fill="#fe0015" class="v-land"></path>
<path d="M.9922 203.9805C.9922 202.7148-3.0039 201.6875-7.9375 201.6875C-12.8672 201.6875-16.8672 202.7148-16.8672 203.9805C-16.8672 205.25-12.8672 206.2773-7.9375 206.2773C-3.0039 206.2773 .9922 205.25 .9922 203.9805Z" fill="#fe0015" class="v-land"></path>
<path d="M-12.4727 207.2969C-12.4727 206.875-13.2344 206.5352-14.1719 206.5352C-15.1133 206.5352-15.875 206.875-15.875 207.2969C-15.875 207.7227-15.1133 208.0625-14.1719 208.0625C-13.2344 208.0625-12.4727 207.7227-12.4727 207.2969Z" fill="#fe0015" class="v-land"></path>
<path d="M92.2695 151.42579C92.2695 150.50391 90.6211 149.75391 88.5859 149.75391C86.5469 149.75391 84.8984 150.50391 84.8984 151.42579C84.8984 152.35157 86.5469 153.10157 88.5859 153.10157C90.6211 153.10157 92.2695 152.35157 92.2695 151.42579Z" fill="#fe0015" class="v-land"></path>
<path d="M113.4727 154.74219C113.4727 154.10157 112.332 153.58204 110.9219 153.58204C109.5117 153.58204 108.3711 154.10157 108.3711 154.74219C108.3711 155.3867 109.5117 155.9063 110.9219 155.9063C112.332 155.9063 113.4727 155.3867 113.4727 154.74219Z" fill="#fe0015" class="v-land"></path>
<path d="M-57.0625-32.914L-71.8008-30.559L-52.9219-24.977L-43.1992-24.52L-45.0703-22.621L-47.082-19.137L-51.1367-16.246L-59.1328-8.195L-36.5664-2.156L-22.4492-2.836L-16.6953-1.871L-14.7109 .395L-12.2461 1.898L-17.0625 1.984L-28.2031 7.539L-17.4336 14.992L-14.2305 17.574L-18.2812 21.059L-20.8906 27.324V33.305L-13.3516 43.652L3.1172 41.016L11.793 40.734L23.16016 37.133L27.55469 36.199L42.918 37.871L47.4531 32.938L53.1523 32.371L62.4219 25.852L68.4023 16.836L64.3203 10.684L65.5391 3.172L57.5156-2.922L51.9883-7.344L44.0781-13.777L35.2344-20.297L21.54297-24.465L23.16016-28.461L33.39453-30.898L44.3359-34.387L56.1836-39.289L70.7266-42.605L71.8867-54.766L80.1953-58.199L84.7852-62.875L76.9609-67.355L68.457-71.805L63.5547-64.801L51.2813-62.25L37.8711-59.047H26.25L28.94141-52.047H15.53516L1.0195-56.496L-12.3867-48.844L-29.1406-43.117L-44.7891-39.289L-55.957-34.812Z" stroke="#fe0013" fill="none" stroke-width=".3985" stroke-miterlimit="10" stroke-dasharray="2.98883 2.98883" class="v-line"></path>
<path d="M-71.8008 122.5117V-30.559" stroke="#fe0013" fill="none" stroke-width=".3985" stroke-miterlimit="10" stroke-dasharray="2.98883 2.98883" class="v-line"></path>
<path d="M84.7852 90.1992V-62.875" stroke="#fe0013" fill="none" stroke-width=".3985" stroke-miterlimit="10" stroke-dasharray="2.98883 2.98883" class="v-line"></path>
</g>
</svg>